#N canvas 1403 720 450 300 12;
#X obj 27 36 inlet;
#X obj 234 33 inlet;
#X text 227 10 note in;
#X obj 294 32 inlet;
#X text 292 13 semitone adjust;
#X obj 152 66 inlet;
#X text 122 47 time division;
#X obj 43 227 outlet;
#X text 103 226 note out;
#X obj 27 114 delay;
#X obj 43 200 int;
#X obj 234 85 + 7;
#X obj 120 84 / 2;
#X text 24 17 bang in;
#X obj 103 25 inlet;
#X text 102 5 metro time;
#X connect 0 0 9 0;
#X connect 1 0 11 0;
#X connect 3 0 11 1;
#X connect 5 0 12 1;
#X connect 9 0 10 0;
#X connect 10 0 7 0;
#X connect 11 0 10 1;
#X connect 12 0 9 1;
#X connect 14 0 12 0;
