#N canvas 944 58 975 610 12;
#X obj 358 554 noteout;
#X obj 19 67 tgl 15 0 empty empty empty 17 7 0 10 -262144 -1 -1 0 1
;
#X floatatom 420 483 5 0 0 0 - - -;
#X obj 18 550 + 30;
#X obj 20 95 metro 2000;
#X obj 18 526 cyclone/drunk 40 7;
#X obj 210 127 arpUnit;
#X obj 66 54 t b f f f;
#X obj 430 442 s rootNote;
#X obj 244 84 r rootNote;
#X floatatom 200 41 5 0 0 0 - - -;
#X floatatom 256 59 5 0 0 0 - - -;
#X obj 200 64 t b f;
#X obj 420 414 int;
#X obj 173 515 arpUnit;
#X obj 207 472 r rootNote;
#X floatatom 163 429 5 0 0 0 - - -;
#X floatatom 236 498 5 0 0 0 - - -;
#X obj 163 452 t b f;
#X floatatom 524 253 0 0 0 0 - - -;
#X floatatom 471 254 0 0 0 0 - - -;
#X floatatom 419 363 5 0 0 0 - - -;
#X obj 486 312 expr if($f2>0 \, $f1 \, -100);
#X text 652 214 sustain?;
#X obj 700 232 tgl 15 0 empty empty empty 17 7 0 10 -262144 -1 -1 0
1;
#X obj 667 253 + 0;
#X obj 700 252 t b f;
#X obj 418 304 spigot;
#N canvas 961 499 925 548 midi 1;
#X obj 54 10 ctlin;
#X floatatom 12 38 5 0 0 0 - - -;
#X floatatom 74 64 5 0 0 0 - - -;
#X floatatom 102 28 5 0 0 0 - - -;
#X obj 203 32 notein 10;
#X floatatom 203 59 5 0 0 0 - - -;
#X obj 203 113 select 36 37 38 39 40 41 42 43;
#X text 202 13 padKontrol;
#X obj 535 276 bng 17 250 50 0 empty empty PLAY 0 -6 0 8 -262144 -1
-1;
#X obj 759 172 bng 17 250 50 0 empty empty clear_stack 0 -6 0 8 -262144
-1 -1;
#X obj 511 315 list append, f 14;
#X obj 727 271 t l;
#X obj 727 246 list prepend;
#X obj 511 352 t l l;
#X obj 543 381 print start;
#X obj 592 503 del;
#X obj 430 484 list append;
#X obj 593 469 unpack;
#X obj 511 419 list split 2;
#X obj 632 497 noteout;
#X floatatom 263 60 5 0 0 0 - - -;
#X obj 204 83 stripnote;
#X obj 592 445 outlet;
#X msg 203 149 5 24 15 27 20 24 25 27 30 0;
#X msg 228 205 10 44 15 57 20 44 25 37 30 0;
#X obj 203 176 s sample_push;
#X obj 509 167 r sample_push;
#X obj 254 288 s sample_push;
#X obj 509 233 t b list;
#X obj 228 232 s sample_push;
#X text 304 176 kick;
#X obj 187 391 s sample_push;
#X text 288 391 kick;
#X obj 605 191 spigot;
#X obj 710 143 tgl 15 0 empty empty stack 17 7 0 10 -262144 -1 -1 0
1;
#X obj 509 199 spigot;
#X obj 508 131 tgl 15 0 empty empty one_Shots 17 7 0 10 -262144 -1
-1 1 1;
#X obj 697 356 tgl 15 0 empty empty loop 17 7 0 10 -262144 -1 -1 0
1;
#X obj 658 386 spigot;
#X obj 256 339 s sample_push;
#X msg 256 312 30 0;
#X text 728 125 sequencer type;
#X obj 610 273 r looprate;
#X obj 775 419 s looprate;
#X obj 793 379 bng 15 250 50 0 empty empty empty 17 7 0 10 -262144
-1 -1;
#X msg 252 260 1 120 2 126 15 86 20 100 30 0;
#X msg 188 363 5 120 10 20 13 23 18 26 30 0;
#N canvas 347 205 613 545 sounddesign 0;
#N canvas 63 192 637 407 (subpatch) 0;
#X array \$0-soundDesign 5 float 3;
#A 0 0 43 34 105 56;
#X coords 0 127 5 0 200 127 1 0 0;
#X restore 327 216 graph;
#X obj 117 321 array get \$0-soundDesign;
#X floatatom 117 364 5 0 0 0 - - -;
#X obj 117 396 noteout;
#X obj 117 234 line;
#X floatatom 117 287 5 0 0 0 - - -;
#X msg 72 214 0;
#X obj 117 261 int;
#X obj 72 188 del;
#X obj 117 114 inlet;
#X obj 199 115 inlet;
#X obj 199 139 cyclone/scale 0 127 100 500;
#X floatatom 199 193 5 0 0 0 - - -;
#X obj 199 167 int;
#X msg 117 195 5 \$1;
#X text 245 105 possible velocity fun here:;
#X text 129 56 abstract this out for samples... lists provide a better
granularity in timing sample push is interesting catch place...;
#X text 185 368 make it so dont need 0 as first note;
#X text 20 148 speed between notes;
#X msg 117 165 25;
#X connect 1 0 2 0;
#X connect 2 0 3 0;
#X connect 4 0 7 0;
#X connect 5 0 1 0;
#X connect 6 0 4 0;
#X connect 7 0 5 0;
#X connect 8 0 6 0;
#X connect 9 0 19 0;
#X connect 10 0 11 0;
#X connect 11 0 13 0;
#X connect 13 0 12 0;
#X connect 14 0 4 0;
#X connect 19 0 14 0;
#X connect 19 0 8 0;
#X restore 252 504 pd sounddesign;
#X text 213 477 array for sound designing;
#X text 214 521 one shot \, read through array;
#X text 34 138 lists: time note time note ...;
#N canvas 1086 191 613 545 sounddesign 0;
#N canvas 63 192 637 407 (subpatch) 0;
#X array 1soundDesign 5 float 3;
#A 0 0 119 90 71 109;
#X coords 0 127 5 0 200 127 1 0 0;
#X restore 327 216 graph;
#X floatatom 117 354 5 0 0 0 - - -;
#X obj 117 406 noteout;
#X obj 117 234 line;
#X floatatom 117 287 5 0 0 0 - - -;
#X msg 72 214 0;
#X obj 117 261 int;
#X obj 72 188 del;
#X obj 117 114 inlet;
#X obj 199 115 inlet;
#X obj 199 139 cyclone/scale 0 127 100 500;
#X floatatom 199 193 5 0 0 0 - - -;
#X obj 199 167 int;
#X msg 117 195 5 \$1;
#X text 245 105 possible velocity fun here:;
#X text 129 56 abstract this out for samples... lists provide a better
granularity in timing sample push is interesting catch place...;
#X text 185 368 make it so dont need 0 as first note;
#X text 20 148 speed between notes;
#X obj 117 321 array get 1soundDesign;
#X msg 117 165 25;
#X connect 1 0 2 0;
#X connect 3 0 6 0;
#X connect 4 0 18 0;
#X connect 5 0 3 0;
#X connect 6 0 4 0;
#X connect 7 0 5 0;
#X connect 8 0 19 0;
#X connect 9 0 10 0;
#X connect 10 0 12 0;
#X connect 12 0 11 0;
#X connect 13 0 3 0;
#X connect 18 0 1 0;
#X connect 19 0 13 0;
#X connect 19 0 7 0;
#X restore 207 419 pd sounddesign;
#N canvas 913 244 613 545 sounddesign 0;
#N canvas 63 192 637 407 (subpatch) 0;
#X array 2soundDesign 5 float 3;
#A 0 -1 63 56 113 126;
#X coords 0 127 5 0 200 127 1 0 0;
#X restore 327 216 graph;
#X floatatom 117 364 5 0 0 0 - - -;
#X obj 117 396 noteout;
#X obj 117 234 line;
#X floatatom 117 287 5 0 0 0 - - -;
#X msg 72 214 0;
#X obj 117 261 int;
#X obj 72 188 del;
#X obj 117 114 inlet;
#X obj 199 115 inlet;
#X obj 199 139 cyclone/scale 0 127 100 500;
#X floatatom 199 193 5 0 0 0 - - -;
#X obj 199 167 int;
#X msg 117 195 5 \$1;
#X text 245 105 possible velocity fun here:;
#X text 129 56 abstract this out for samples... lists provide a better
granularity in timing sample push is interesting catch place...;
#X text 185 368 make it so dont need 0 as first note;
#X text 20 148 speed between notes;
#X msg 117 165 25;
#X obj 117 321 array get 2soundDesign;
#X connect 1 0 2 0;
#X connect 3 0 6 0;
#X connect 4 0 19 0;
#X connect 5 0 3 0;
#X connect 6 0 4 0;
#X connect 7 0 5 0;
#X connect 8 0 18 0;
#X connect 9 0 10 0;
#X connect 10 0 12 0;
#X connect 12 0 11 0;
#X connect 13 0 3 0;
#X connect 18 0 13 0;
#X connect 18 0 7 0;
#X connect 19 0 1 0;
#X restore 238 450 pd sounddesign;
#X connect 0 0 1 0;
#X connect 0 1 2 0;
#X connect 0 2 3 0;
#X connect 4 0 5 0;
#X connect 4 1 20 0;
#X connect 5 0 21 0;
#X connect 6 0 23 0;
#X connect 6 1 24 0;
#X connect 6 2 45 0;
#X connect 6 3 40 0;
#X connect 6 4 46 0;
#X connect 6 5 51 0;
#X connect 6 6 52 0;
#X connect 6 7 47 0;
#X connect 8 0 10 0;
#X connect 9 0 12 1;
#X connect 10 0 13 0;
#X connect 11 0 12 1;
#X connect 11 0 10 1;
#X connect 12 0 11 0;
#X connect 13 0 18 0;
#X connect 13 1 14 0;
#X connect 15 0 16 0;
#X connect 16 0 18 0;
#X connect 17 0 15 0;
#X connect 17 1 19 0;
#X connect 18 0 17 0;
#X connect 18 1 16 1;
#X connect 18 2 22 0;
#X connect 18 2 38 0;
#X connect 20 0 21 1;
#X connect 21 0 6 0;
#X connect 23 0 25 0;
#X connect 24 0 29 0;
#X connect 26 0 35 0;
#X connect 28 0 8 0;
#X connect 28 1 10 1;
#X connect 28 1 33 0;
#X connect 33 0 12 0;
#X connect 34 0 33 1;
#X connect 35 0 28 0;
#X connect 36 0 35 1;
#X connect 37 0 38 1;
#X connect 38 0 8 0;
#X connect 40 0 39 0;
#X connect 42 0 10 0;
#X connect 44 0 43 0;
#X connect 45 0 27 0;
#X connect 46 0 31 0;
#X restore 518 446 pd midi;
#X msg 65 24 100;
#X obj 507 139 arp;
#X obj 507 106 metro;
#X obj 507 72 tgl 15 0 empty empty empty 17 7 0 10 -262144 -1 -1 0
1;
#X obj 539 77 nbx 5 14 20 1000 0 0 empty empty empty 0 -8 0 10 -262144
-1 -1 49 256;
#X text 598 76 SID64iness;
#X text 547 103 this could be any bang-maker of your choosing;
#X text 666 149 the goods;
#X obj 398 180 route 1;
#X obj 398 204 unpack;
#X obj 572 191 unpack;
#X floatatom 649 47 5 0 0 0 - - -;
#X obj 649 23 notein 1;
#X obj 401 230 spigot;
#X obj 398 160 tgl 15 0 empty empty empty 17 7 0 10 -262144 -1 -1 0
1;
#X obj 787 142 notein 16;
#X obj 780 188 select 0 1;
#X floatatom 787 166 5 0 0 0 - - -;
#X text 829 158 pd out midi chan 16 for control triggers;
#X connect 1 0 4 0;
#X connect 2 0 0 0;
#X connect 4 0 5 0;
#X connect 4 0 6 0;
#X connect 4 0 14 0;
#X connect 5 0 3 0;
#X connect 7 1 4 1;
#X connect 7 1 14 1;
#X connect 7 2 6 1;
#X connect 9 0 6 3;
#X connect 10 0 12 0;
#X connect 11 0 6 4;
#X connect 12 0 29 0;
#X connect 12 1 6 2;
#X connect 13 0 8 0;
#X connect 13 0 2 0;
#X connect 15 0 14 3;
#X connect 16 0 18 0;
#X connect 17 0 14 4;
#X connect 18 0 29 0;
#X connect 18 1 14 2;
#X connect 19 0 25 0;
#X connect 20 0 22 0;
#X connect 20 0 27 0;
#X connect 21 0 13 0;
#X connect 22 0 21 0;
#X connect 24 0 26 0;
#X connect 25 0 22 1;
#X connect 26 0 19 0;
#X connect 26 0 20 0;
#X connect 26 1 25 1;
#X connect 27 0 21 0;
#X connect 28 0 2 0;
#X connect 29 0 7 0;
#X connect 30 0 37 0;
#X connect 31 0 30 0;
#X connect 32 0 31 0;
#X connect 33 0 31 1;
#X connect 37 0 38 0;
#X connect 38 0 42 0;
#X connect 39 0 20 0;
#X connect 39 1 19 0;
#X connect 41 0 30 1;
#X connect 41 0 40 0;
#X connect 41 0 39 0;
#X connect 41 1 30 2;
#X connect 42 0 0 0;
#X connect 43 0 42 1;
#X connect 44 0 45 0;
#X connect 44 0 46 0;
#X connect 45 0 24 0;
#X connect 45 1 24 0;
