#N canvas 304 57 719 775 12;
#X obj 50 69 *~;
#X floatatom 51 236 5 0 0 0 - - -;
#X obj 144 336 tgl 30 0 empty empty empty 17 7 0 10 -262144 -1 -1 1
1;
#X obj 51 336 spigot;
#X obj 49 30 adc~ 1;
#X obj 51 148 route 0 1 2 3 4;
#X obj 51 186 unpack f f f f;
#X floatatom 191 260 5 0 0 0 - - -;
#X obj 284 339 tgl 30 0 empty empty empty 17 7 0 10 -262144 -1 -1 1
1;
#X obj 191 339 spigot;
#X obj 191 221 unpack f f f f;
#X obj 51 273 ftom;
#X obj 191 296 ftom;
#X floatatom 326 313 5 0 0 0 - - -;
#X obj 419 392 tgl 30 0 empty empty empty 17 7 0 10 -262144 -1 -1 1
1;
#X obj 326 392 spigot;
#X obj 326 274 unpack f f f f;
#X obj 326 349 ftom;
#X obj 51 369 pipe 0;
#X obj 189 6 tgl 15 0 empty empty empty 17 7 0 10 -262144 -1 -1 0 1
;
#X msg 189 61 0.5;
#X msg 258 62 0;
#X msg 10 500 0;
#X obj 189 23 metro 40;
#X obj 326 432 pipe 30;
#X obj 193 378 pipe 20;
#X msg 579 505 record;
#X msg 582 528 write;
#X obj 582 565 cyclone/seq;
#X obj 244 522 pack \$1 127;
#X obj 244 546 cyclone/midiformat 1;
#X msg 635 529 clear;
#X obj 385 33 hsl 128 15 0 127 0 0 empty empty empty -2 -8 0 10 -262144
-1 -1 2000 1;
#X floatatom 382 53 5 0 0 0 - - -;
#X obj 49 109 sigmund~ -maxfreq 8000 -hop 8096 -npeak 4 peaks;
#X msg 634 505 stop;
#X obj 52 528 noteout 1;
#X obj 244 612 midiout 2;
#X obj 244 570 spigot;
#X obj 303 570 tgl 30 0 empty empty empty 17 7 0 10 -262144 -1 -1 0
1;
#X msg 113 591 1;
#X text 293 596 to reaper \, remember to mute reaper;
#X text 326 151 Take line in from souP \, get midi notes from it \,
send it to midi playback \, with option to record to reaper.;
#X obj 306 43 pipe 17;
#X connect 0 0 34 0;
#X connect 1 0 11 0;
#X connect 2 0 3 1;
#X connect 3 0 18 0;
#X connect 4 0 0 0;
#X connect 5 0 6 0;
#X connect 5 1 10 0;
#X connect 5 2 16 0;
#X connect 6 0 1 0;
#X connect 7 0 12 0;
#X connect 8 0 9 1;
#X connect 9 0 25 0;
#X connect 10 0 7 0;
#X connect 11 0 3 0;
#X connect 12 0 9 0;
#X connect 13 0 17 0;
#X connect 14 0 15 1;
#X connect 15 0 24 0;
#X connect 16 0 13 0;
#X connect 17 0 15 0;
#X connect 18 0 29 0;
#X connect 18 0 36 0;
#X connect 19 0 23 0;
#X connect 20 0 0 1;
#X connect 21 0 0 1;
#X connect 22 0 29 0;
#X connect 22 0 36 0;
#X connect 23 0 20 0;
#X connect 23 0 43 0;
#X connect 24 0 29 0;
#X connect 24 0 36 0;
#X connect 25 0 29 0;
#X connect 25 0 36 0;
#X connect 26 0 28 0;
#X connect 27 0 28 0;
#X connect 29 0 30 0;
#X connect 30 0 28 0;
#X connect 30 0 38 0;
#X connect 31 0 28 0;
#X connect 32 0 33 0;
#X connect 32 0 43 1;
#X connect 34 0 5 0;
#X connect 35 0 28 0;
#X connect 38 0 37 0;
#X connect 39 0 38 1;
#X connect 40 0 36 2;
#X connect 43 0 21 0;
