#N canvas 1133 57 787 776 12;
#X obj 163 13 midiin;
#N canvas 0 50 450 250 (subpatch) 0;
#X array notePriority 3 float 3;
#A 0 0 0 0;
#X coords 0 127 3 0 200 127 1 0 0;
#X restore 492 247 graph;
#X obj 163 53 cyclone/midiparse;
#X text 191 33 10=Drums \, 1=Melody \, n=Bass;
#X obj 272 342 array set notePriority;
#X obj 219 285 pack f f f;
#X obj 243 721 midiout;
#X obj 243 697 cyclone/midiformat;
#X obj 243 670 pack \$1 127;
#N canvas 0 57 444 303 velocityBasedApproach 0;
#X obj 32 38 unpack;
#X floatatom 14 157 5 0 0 0 - - -;
#X obj 63 220 pack i i i;
#X obj 14 133 i;
#X obj 63 132 i;
#X floatatom 63 156 5 0 0 0 - - -;
#X obj 71 78 select 127 99 75;
#X obj 63 193 t b f;
#X obj 125 130 i;
#X floatatom 125 154 5 0 0 0 - - -;
#X obj 125 191 t b f;
#X text 59 11 velocity based approach midi note into unpack;
#X connect 0 0 3 1;
#X connect 0 0 4 1;
#X connect 0 0 8 1;
#X connect 0 1 6 0;
#X connect 1 0 2 0;
#X connect 3 0 1 0;
#X connect 4 0 5 0;
#X connect 5 0 7 0;
#X connect 6 0 3 0;
#X connect 6 1 4 0;
#X connect 6 2 8 0;
#X connect 7 0 2 0;
#X connect 7 1 2 1;
#X connect 8 0 9 0;
#X connect 9 0 10 0;
#X connect 10 0 2 0;
#X connect 10 1 2 2;
#X restore 605 26 pd velocityBasedApproach;
#X obj 32 523 print;
#X obj 154 449 array get notePriority;
#X msg 154 422 0;
#X obj 154 473 unpack f f f;
#X obj 119 538 select 0;
#X obj 119 512 f;
#X obj 191 512 f;
#X obj 263 514 f;
#X obj 191 538 select 0;
#X msg 275 644 0;
#X obj 338 581 bng 40 250 50 0 empty empty rid_hanging_note 17 7 0
10 -262144 -1 -1;
#X obj 97 181 unpack;
#X floatatom 79 229 5 0 0 0 - - -;
#X obj 79 205 f;
#X obj 97 158 spigot;
#X obj 159 88 == 10;
#X obj 135 245 select 0;
#X msg 135 269 0;
#X obj 159 112 t b f;
#X obj 238 158 unpack;
#X floatatom 220 206 5 0 0 0 - - -;
#X obj 220 182 f;
#X obj 238 135 spigot;
#X obj 277 185 select 0;
#X msg 277 209 0;
#X obj 292 96 t b f;
#X obj 292 72 == 1;
#X obj 13 216 tgl 15 0 empty empty empty 17 7 0 10 -262144 -1 -1 1
1;
#X obj 220 229 t b f;
#X obj 154 388 bng 15 250 50 0 empty empty empty 17 7 0 10 -262144
-1 -1;
#X obj 263 538 select 0;
#X obj 219 309 t b list;
#X obj 338 626 del 1;
#X obj 11 259 metro 20;
#X obj 349 408 print;
#X connect 0 0 2 0;
#X connect 2 0 24 0;
#X connect 2 0 32 0;
#X connect 2 6 25 0;
#X connect 2 6 36 0;
#X connect 5 0 41 0;
#X connect 7 0 6 0;
#X connect 8 0 7 0;
#X connect 11 0 10 0;
#X connect 11 0 13 0;
#X connect 12 0 11 0;
#X connect 13 0 15 0;
#X connect 13 1 16 1;
#X connect 13 2 17 1;
#X connect 14 0 16 0;
#X connect 14 1 8 0;
#X connect 15 0 14 0;
#X connect 16 0 18 0;
#X connect 17 0 40 0;
#X connect 18 0 17 0;
#X connect 18 1 8 0;
#X connect 19 0 8 0;
#X connect 20 0 42 0;
#X connect 21 0 23 1;
#X connect 21 1 26 0;
#X connect 22 0 5 0;
#X connect 23 0 22 0;
#X connect 24 0 21 0;
#X connect 25 0 28 0;
#X connect 26 0 27 0;
#X connect 28 0 23 0;
#X connect 28 1 24 1;
#X connect 29 0 31 1;
#X connect 29 1 33 0;
#X connect 30 0 38 0;
#X connect 31 0 30 0;
#X connect 32 0 29 0;
#X connect 33 0 34 0;
#X connect 34 0 38 0;
#X connect 35 0 31 0;
#X connect 35 1 32 1;
#X connect 36 0 35 0;
#X connect 37 0 43 0;
#X connect 38 0 5 0;
#X connect 38 1 5 1;
#X connect 39 0 12 0;
#X connect 40 0 20 0;
#X connect 40 1 8 0;
#X connect 41 1 4 0;
#X connect 41 1 44 0;
#X connect 42 0 19 0;
#X connect 43 0 12 0;
